<?xml version="1.0" standalone="no"?>
<!DOCTYPE svg PUBLIC "-//W3C//DTD SVG 20010904//EN"
 "http://www.w3.org/TR/2001/REC-SVG-20010904/DTD/svg10.dtd">
<svg version="1.0" xmlns="http://www.w3.org/2000/svg"
 width="1199.000000pt" height="1280.000000pt" viewBox="0 0 1199.000000 1280.000000"
 preserveAspectRatio="xMidYMid meet">
<metadata>
Created by potrace 1.15, written by Peter Selinger 2001-2017
</metadata>
<g transform="translate(0.000000,1280.000000) scale(0.100000,-0.100000)"
fill="#000000" stroke="none">
<path d="M4615 12776 c-59 -27 -117 -88 -136 -142 -20 -59 -16 -144 9 -195 12
-24 51 -77 86 -116 209 -234 332 -435 378 -615 16 -63 19 -102 16 -177 -5
-106 -20 -158 -79 -275 -63 -125 -113 -192 -400 -541 -284 -346 -408 -576
-456 -849 -19 -109 -13 -334 12 -436 54 -224 147 -420 308 -650 132 -188 204
-264 275 -290 74 -28 118 -25 188 10 128 65 179 214 115 338 -11 20 -50 75
-87 122 -142 179 -242 353 -296 515 -20 60 -23 89 -23 210 1 129 3 146 29 215
57 150 153 295 361 545 173 208 237 290 310 400 392 586 314 1138 -253 1785
-97 111 -126 135 -183 155 -59 21 -116 18 -174 -9z"/>
<path d="M5722 12714 c-65 -32 -108 -84 -129 -153 -31 -107 -6 -179 106 -303
190 -213 307 -400 363 -578 29 -96 31 -266 4 -345 -52 -148 -122 -261 -295
-474 -64 -78 -160 -198 -214 -265 -298 -367 -417 -645 -417 -971 0 -211 42
-382 149 -600 99 -202 315 -503 406 -567 140 -98 339 -15 375 157 20 97 -1
155 -102 280 -149 185 -269 398 -309 550 -30 116 -30 257 0 355 53 172 130
291 427 653 89 109 191 239 226 288 431 609 359 1170 -238 1851 -101 115 -156
148 -244 148 -40 0 -71 -7 -108 -26z"/>
<path d="M6955 12716 c-96 -44 -153 -145 -142 -251 7 -68 32 -115 106 -197
255 -286 383 -521 398 -733 13 -184 -76 -381 -293 -646 -250 -306 -366 -454
-420 -539 -166 -258 -235 -470 -235 -725 0 -140 16 -246 58 -379 83 -269 390
-737 527 -805 118 -59 268 -7 324 112 54 116 37 190 -78 337 -117 149 -182
251 -244 381 -124 260 -125 431 -6 674 64 132 122 212 354 494 230 281 300
379 381 541 89 178 129 342 128 530 0 186 -39 341 -132 535 -119 249 -410 624
-524 675 -59 27 -139 26 -202 -4z"/>
<path d="M1097 8129 c-90 -21 -157 -85 -183 -175 -33 -116 3 -1130 62 -1714
144 -1431 527 -2541 1207 -3492 l91 -128 3371 0 3370 0 81 108 c45 59 105 142
135 185 29 42 60 77 69 77 8 0 35 -7 59 -16 139 -48 458 -70 641 -44 966 137
1785 1088 1960 2275 78 533 -6 1099 -226 1515 -115 216 -311 449 -493 585
-205 153 -475 260 -734 289 l-97 11 -3 170 c-3 188 -9 212 -68 280 -19 21 -54
48 -79 59 l-45 21 -4540 2 c-2637 0 -4556 -3 -4578 -8z m9443 -1256 c508 -165
781 -912 624 -1703 -94 -472 -299 -870 -608 -1175 -216 -215 -420 -330 -659
-371 -79 -14 -220 -14 -234 0 -2 1 22 56 53 122 369 781 574 1655 649 2769 8
127 18 267 21 312 l6 81 36 -5 c21 -3 71 -16 112 -30z"/>
<path d="M215 2303 c-87 -19 -151 -66 -187 -136 -29 -57 -34 -133 -13 -196 13
-41 43 -79 153 -199 74 -81 228 -255 341 -387 340 -399 524 -574 771 -740 458
-307 1058 -491 2013 -620 l187 -25 2191 0 2190 0 242 39 c983 161 1598 374
2052 711 206 152 353 295 700 680 82 91 216 234 297 317 168 172 190 209 191
309 0 115 -83 219 -193 243 -37 8 -1590 11 -5483 10 -2988 -1 -5441 -3 -5452
-6z"/>
</g>
</svg>
